<svg xmlns="http://www.w3.org/2000/svg" width="192" height="192" viewBox="0 0 192 192">
  <rect width="192" height="192" rx="36" fill="#0f172a"/>
  <g transform="translate(28, 48)">
    <rect x="0" y="0" width="18" height="96" rx="2" fill="#f8fafc" stroke="#94a3b8" stroke-width="1"/>
    <rect x="20" y="0" width="18" height="96" rx="2" fill="#f8fafc" stroke="#94a3b8" stroke-width="1"/>
    <rect x="40" y="0" width="18" height="96" rx="2" fill="#f8fafc" stroke="#94a3b8" stroke-width="1"/>
    <rect x="60" y="0" width="18" height="96" rx="2" fill="#3b82f6" opacity="0.4" stroke="#94a3b8" stroke-width="1"/>
    <rect x="80" y="0" width="18" height="96" rx="2" fill="#f8fafc" stroke="#94a3b8" stroke-width="1"/>
    <rect x="100" y="0" width="18" height="96" rx="2" fill="#f8fafc" stroke="#94a3b8" stroke-width="1"/>
    <rect x="120" y="0" width="18" height="96" rx="2" fill="#f8fafc" stroke="#94a3b8" stroke-width="1"/>
    <rect x="13" y="0" width="12" height="58" rx="2" fill="#1e293b"/>
    <rect x="33" y="0" width="12" height="58" rx="2" fill="#1e293b"/>
    <rect x="73" y="0" width="12" height="58" rx="2" fill="#1e293b"/>
    <rect x="93" y="0" width="12" height="58" rx="2" fill="#1e293b"/>
    <rect x="113" y="0" width="12" height="58" rx="2" fill="#1e293b"/>
  </g>
</svg>
